# xmcd
# 
# Track frame offsets:
#     150
#     18476
#     37182
#     53612
#     70514
#     84878
#     101347
#     121787
#     139469
#     160328
# 
# Disc length: 2402
# 
# Revision: 0
# Processed by: cddbd v1.5.2PL0 Copyright (c) Steve Scherf et al.
# Submitted via: fre:ac v1.0.27
# 
DISCID=7909600a
DTITLE=Dave Meaney - Lost And Found
DYEAR=1997
DGENRE=Folk/Rock
TTITLE0=Make It Home
TTITLE1=The Forgotten Ones
TTITLE2=Rescue Me
TTITLE3=Lost and Found
TTITLE4=Rainy Town
TTITLE5=Mistery Man
TTITLE6=Thinking Of Her
TTITLE7=Hard-Drinkin Nights
TTITLE8=You Never Have It All
TTITLE9=Bonus
EXTD=
EXTT0=
EXTT1=
EXTT2=
EXTT3=
EXTT4=
EXTT5=
EXTT6=
EXTT7=
EXTT8=
EXTT9=
PLAYORDER=
